HIERARCHY
ROOT Hips
{
	OFFSET 0.000000 0.000000 0.000000
	CHANNELS 6 Xposition Yposition Zposition Zrotation Yrotation Xrotation 
	JOINT LHipJoint
	{
		OFFSET 0.000000 0.000000 0.000000
		CHANNELS 3 Zrotation Yrotation Xrotation
		JOINT LeftUpLeg
		{
			OFFSET 1.363060 -1.794630 0.839290
			CHANNELS 3 Zrotation Yrotation Xrotation
			JOINT LeftLeg
			{
				OFFSET 2.448110 -6.726130 0.000000
				CHANNELS 3 Zrotation Yrotation Xrotation
				JOINT LeftFoot
				{
					OFFSET 2.562200 -7.039590 0.000000
					CHANNELS 3 Zrotation Yrotation Xrotation
					JOINT LeftToeBase
					{
						OFFSET 0.157640 -0.433110 2.322550
						CHANNELS 3 Zrotation Yrotation Xrotation
						End Site
						{
							OFFSET 0.000000 0.000000 0.000000
						}
					}
				}
			}
		}
	}
	JOINT RHipJoint
	{
		OFFSET 0.000000 0.000000 0.000000
		CHANNELS 3 Zrotation Yrotation Xrotation
		JOINT RightUpLeg
		{
			OFFSET -1.305520 -1.794630 0.839290
			CHANNELS 3 Zrotation Yrotation Xrotation
			JOINT RightLeg
			{
				OFFSET -2.542530 -6.985550 0.000000
				CHANNELS 3 Zrotation Yrotation Xrotation
				JOINT RightFoot
				{
					OFFSET -2.568260 -7.056230 0.000000
					CHANNELS 3 Zrotation Yrotation Xrotation
					JOINT RightToeBase
					{
						OFFSET -0.164730 -0.452590 2.363150
						CHANNELS 3 Zrotation Yrotation Xrotation
						End Site
						{
							OFFSET 0.000000 0.000000 0.000000
						}
					}
				}
			}
		}
	}
	JOINT LowerBack
	{
		OFFSET 0.000000 0.000000 0.000000
		CHANNELS 3 Zrotation Yrotation Xrotation
		JOINT Spine
		{
			OFFSET 0.028270 2.035590 -0.193380
			CHANNELS 3 Zrotation Yrotation Xrotation
			JOINT Spine1
			{
				OFFSET 0.056720 2.048850 -0.042750
				CHANNELS 3 Zrotation Yrotation Xrotation
				JOINT Neck
				{
					OFFSET 0.000000 0.000000 0.000000
					CHANNELS 3 Zrotation Yrotation Xrotation
					JOINT Neck1
					{
						OFFSET -0.054170 1.746240 0.172020
						CHANNELS 3 Zrotation Yrotation Xrotation
						JOINT Head
						{
							OFFSET 0.104070 1.761360 -0.123970
							CHANNELS 3 Zrotation Yrotation Xrotation
							End Site
							{
								OFFSET 0.000000 0.000000 0.000000
							}
						}
					}
				}
				JOINT LeftShoulder
				{
					OFFSET 0.000000 0.000000 0.000000
					CHANNELS 3 Zrotation Yrotation Xrotation
					JOINT LeftArm
					{
						OFFSET 3.362410 1.200890 -0.311210
						CHANNELS 3 Zrotation Yrotation Xrotation
						JOINT LeftForeArm
						{
							OFFSET 4.983000 -0.000000 -0.000000
							CHANNELS 3 Zrotation Yrotation Xrotation
							JOINT LeftHand
							{
								OFFSET 3.483560 -0.000000 -0.000000
								CHANNELS 3 Zrotation Yrotation Xrotation
								JOINT LeftFingerBase
								{
									OFFSET 0.000000 0.000000 0.000000
									CHANNELS 3 Zrotation Yrotation Xrotation
									JOINT LeftHandIndex1
									{
										OFFSET 0.715260 -0.000000 -0.000000
										CHANNELS 3 Zrotation Yrotation Xrotation
										End Site
										{
											OFFSET 0.000000 0.000000 0.000000
										}
									}
								}
								JOINT LThumb
								{
									OFFSET 0.000000 0.000000 0.000000
									CHANNELS 3 Zrotation Yrotation Xrotation
									End Site
									{
										OFFSET 0.000000 0.000000 0.000000
									}
								}
							}
						}
					}
				}
				JOINT RightShoulder
				{
					OFFSET 0.000000 0.000000 0.000000
					CHANNELS 3 Zrotation Yrotation Xrotation
					JOINT RightArm
					{
						OFFSET -3.136600 1.374050 -0.404650
						CHANNELS 3 Zrotation Yrotation Xrotation
						JOINT RightForeArm
						{
							OFFSET -5.241900 -0.000000 -0.000000
							CHANNELS 3 Zrotation Yrotation Xrotation
							JOINT RightHand
							{
								OFFSET -3.444170 -0.000000 -0.000000
								CHANNELS 3 Zrotation Yrotation Xrotation
								JOINT RightFingerBase
								{
									OFFSET 0.000000 0.000000 0.000000
									CHANNELS 3 Zrotation Yrotation Xrotation
									JOINT RightHandIndex1
									{
										OFFSET -0.622530 -0.000000 -0.000000
										CHANNELS 3 Zrotation Yrotation Xrotation
										End Site
										{
											OFFSET 0.000000 0.000000 0.000000
										}
									}
								}
								JOINT RThumb
								{
									OFFSET 0.000000 0.000000 0.000000
									CHANNELS 3 Zrotation Yrotation Xrotation
									End Site
									{
										OFFSET 0.000000 0.000000 0.000000
									}
								}
							}
						}
					}
				}
			}
		}
	}
}
MOTION
Frames: 8
Frame Time: 0.008333
2.799976 17.817946 1.850303 -6.174922 -13.253081 1.867035 -2.940194 -4.312043 -4.806029 1.035849 -0.675768 -41.231298 0.128496 8.662598 21.268791 -1.546326 10.331784 14.425697 1.748300 -8.320800 -23.692900 2.826243 0.790196 2.452680 27.509290 -0.395366 17.052225 1.121116 -0.065470 0.985994 -1.478263 5.100200 3.401397 -0.520500 -4.623600 12.838100 6.473479 1.289852 6.091522 0.996690 1.657063 -3.169289 2.332453 1.161883 -0.376175 -5.870947 1.046612 -7.888220 5.158371 2.030807 8.967074 3.943100 0.783400 5.899500 -4.885315 0.200985 -2.313842 -44.600922 -46.776354 -0.746746 20.514576 -32.704453 -8.763007 0.989788 -2.724043 -15.926321 -4.349040 35.624404 -2.838000 -7.125000 0.000000 0.000000 -47.114400 62.108200 -22.179700 1.767440 0.617819 -0.268268 84.948354 -11.338303 -3.747195 -9.036016 17.760605 -1.789884 0.260751 -0.309902 -5.771912 -12.584065 13.199412 -3.045600 7.125000 0.000000 0.000000 9.989600 -16.252700 6.901400 
2.809352 17.800534 2.013201 -6.518248 -13.540017 2.301155 -2.932987 -4.296199 -4.821644 1.116137 -0.429990 -41.081759 0.138688 8.581768 20.981569 -1.513222 10.961933 16.464039 1.898200 -8.650600 -24.708400 2.823096 0.763915 2.462323 27.685284 -0.197970 17.304079 1.121740 -0.064671 0.975838 -1.480513 5.124481 3.606397 -0.619600 -5.037600 14.015900 7.088106 1.541636 5.795098 0.951474 1.978774 -3.176610 1.835671 1.336992 -0.213072 -5.871315 1.061042 -8.104628 5.358014 2.047701 9.073143 4.090600 0.801200 5.985100 -4.933414 0.271873 -2.268839 -45.895572 -46.691739 0.166884 20.653811 -32.852006 -8.806569 0.996147 -2.692687 -15.238106 -4.731448 35.751746 -3.113600 -7.125000 0.000000 0.000000 -47.634600 62.061400 -22.435000 1.715361 0.568408 -0.297421 85.353401 -10.613313 -4.078882 -8.968568 17.685777 -1.776192 0.255468 -0.324827 -5.252266 -12.723429 13.469448 -3.141900 7.125000 0.000000 0.000000 9.893100 -15.958700 6.896600 
2.824705 17.786933 2.196294 -6.481976 -13.894744 2.483164 -3.036130 -4.267911 -4.783106 1.012443 -0.570381 -40.600412 0.195140 8.651260 21.041930 -1.639407 12.008280 18.031444 2.312700 -9.489200 -27.337800 2.834658 0.720891 2.466737 27.411725 -0.061738 17.815213 1.119582 -0.069711 0.977505 -1.475155 5.089202 3.567566 -0.522900 -4.634200 12.868000 7.291149 1.758992 5.405430 0.900055 2.216306 -3.138021 1.507248 1.471889 0.229104 -5.792457 0.993172 -8.657760 5.287473 1.943204 9.314705 4.059300 0.742000 6.229200 -4.972107 0.362039 -2.215303 -47.262866 -46.484085 0.806319 20.767338 -33.007638 -8.857056 1.010535 -2.658765 -14.568332 -5.178694 35.814909 -3.430400 -7.125000 0.000000 0.000000 -48.130500 61.949900 -22.604100 1.696087 0.455149 -0.335595 85.579371 -9.906774 -3.683994 -8.999257 17.767821 -1.789678 0.259740 -0.334514 -5.428881 -12.981734 13.827319 -3.290900 7.125000 0.000000 0.000000 9.712100 -15.568300 6.849600 
2.824396 17.780545 2.397934 -6.113097 -14.511655 2.570579 -3.186907 -4.212491 -4.713977 1.056846 -1.234667 -39.879822 0.302101 8.843903 21.356845 -2.130909 13.652490 18.103789 2.316900 -9.497100 -27.363200 2.844723 0.663635 2.474450 26.781874 0.258426 18.532935 1.119462 -0.074913 0.984633 -1.477538 5.087739 3.503031 -0.422300 -4.170700 11.557300 6.799878 1.961960 4.852774 0.859408 2.396086 -3.092228 1.655401 1.572540 0.688056 -5.852689 0.905403 -8.944054 5.181507 1.837472 9.405486 4.002700 0.680800 6.313900 -5.018973 0.462962 -2.168987 -47.977517 -45.846659 1.508828 20.789386 -33.136354 -8.895258 1.026793 -2.644265 -14.791292 -5.083634 35.865708 -3.378700 -7.125000 0.000000 0.000000 -48.106100 62.001100 -22.647300 1.713487 0.345135 -0.347805 85.556880 -9.364531 -2.500686 -9.086339 17.917082 -1.812067 0.269636 -0.333037 -6.195864 -13.158347 14.038982 -3.387000 7.125000 0.000000 0.000000 9.587100 -15.339000 6.806900 
2.818729 17.772817 2.576184 -6.673843 -15.033927 3.058038 -3.166987 -4.153276 -4.725806 1.967176 -1.953127 -39.416359 0.474025 9.034680 21.656498 -2.608966 15.270272 18.146689 1.939400 -8.738700 -24.981400 2.810203 0.623656 2.481129 27.200800 0.689901 18.923954 1.122859 -0.072170 0.964052 -1.481587 5.130602 3.836269 -0.422000 -4.169500 11.554000 7.218611 2.172712 4.504345 0.893264 2.639322 -3.118872 1.664694 1.705581 0.687358 -5.832051 0.808391 -8.690789 4.989166 1.714060 9.205731 3.884700 0.615400 6.146700 -5.048455 0.522675 -2.115594 -48.821845 -45.033175 2.744729 20.903431 -33.327913 -8.968083 1.022371 -2.630211 -15.194340 -4.555859 35.873912 -3.033900 -7.125000 0.000000 0.000000 -47.598800 62.141600 -22.503200 1.757642 0.296541 -0.356613 85.534629 -8.854845 -1.706504 -9.076803 17.891438 -1.804212 0.271637 -0.340190 -6.612724 -13.275187 14.302462 -3.480300 7.125000 0.000000 0.000000 9.507800 -15.054900 6.807700 
2.814813 17.769005 2.747841 -7.000793 -15.230106 3.353953 -3.166522 -4.106171 -4.693671 1.919359 -1.655832 -39.325616 0.596222 9.179866 22.032987 -2.529123 15.669169 19.499204 1.680600 -8.166300 -23.220500 2.785576 0.590882 2.498208 27.358730 0.757290 19.248947 1.119828 -0.067393 0.956200 -1.512339 5.326945 4.193880 -0.391400 -4.017100 11.124600 7.489350 2.292057 4.477054 0.909030 2.802808 -3.174313 1.570503 1.798485 0.410103 -5.641020 0.740407 -8.368015 4.692730 1.603285 8.911684 3.670900 0.559700 5.951100 -5.084987 0.554910 -2.054248 -50.075019 -44.046745 4.201793 21.164506 -33.636077 -9.117557 1.015539 -2.604420 -15.467190 -4.107759 35.806885 -2.738700 -7.125000 0.000000 0.000000 -47.051600 62.198300 -22.241900 1.803212 0.274954 -0.380054 85.593309 -8.463331 -1.163889 -9.073942 17.848250 -1.796814 0.263092 -0.345514 -6.754033 -13.139288 14.336673 -3.450600 7.125000 0.000000 0.000000 9.606300 -15.026200 6.886300 
2.822026 17.761689 2.942062 -7.027570 -15.517940 3.561144 -3.243425 -4.042930 -4.595955 1.410312 -1.173066 -39.090047 0.708992 9.331600 22.452603 -2.443833 16.122507 20.946559 1.346700 -7.346800 -20.747000 2.789256 0.539601 2.530466 27.072950 0.878134 19.730713 1.116792 -0.064542 0.958498 -1.569319 5.666681 4.465540 -0.352400 -3.814000 10.553900 7.630957 2.391165 4.333071 0.873073 2.931452 -3.253999 1.248568 1.878675 0.109058 -5.254473 0.797084 -8.179083 4.490208 1.618906 8.870297 3.484100 0.569300 5.912100 -5.154811 0.585485 -2.016173 -51.223768 -42.650057 5.708822 21.457465 -33.998011 -9.298185 1.028812 -2.572512 -16.103881 -3.677312 35.669503 -2.454500 -7.125000 0.000000 0.000000 -46.430500 62.200100 -21.878700 1.822481 0.246880 -0.432302 85.835177 -8.599762 -0.016821 -9.343529 18.244581 -1.876759 0.252957 -0.345327 -7.427678 -12.919212 14.343321 -3.389800 7.125000 0.000000 0.000000 9.764900 -15.036000 7.001300 
2.834287 17.740258 3.144010 -6.823792 -15.938066 3.788416 -3.378099 -3.972328 -4.468266 0.883818 -0.947798 -38.601649 0.816959 9.489343 22.846774 -2.509963 16.865281 21.900087 0.956100 -6.226500 -17.442900 2.811576 0.480390 2.556043 26.494376 1.134247 20.243636 1.117191 -0.062909 0.962153 -1.606144 5.870867 4.906213 -0.322100 -3.647900 10.088000 7.574046 2.552561 3.952027 0.805477 3.106731 -3.301674 0.945209 1.983176 0.075456 -5.093898 0.856454 -8.187231 4.502536 1.669082 9.086435 3.473400 0.590300 6.018000 -5.239579 0.658483 -1.989343 -52.427799 -41.385824 7.075123 21.734517 -34.366927 -9.473847 1.048813 -2.534644 -16.439043 -3.477351 35.509327 -2.328100 -7.125000 0.000000 0.000000 -46.006100 62.114400 -21.538600 1.801732 0.186160 -0.481393 86.104570 -8.652879 1.381674 -9.675408 18.764776 -1.982212 0.248705 -0.363272 -8.346278 -13.012495 15.185997 -3.606300 7.125000 0.000000 0.000000 9.708400 -14.159600 7.143800 
